<svg width="10" height="13" viewBox="0 0 10 13" fill="none" xmlns="http://www.w3.org/2000/svg">
<path d="M0.867 13V11.419C1.59233 10.8183 2.295 10.2233 2.975 9.634C3.66633 9.04467 4.27833 8.461 4.811 7.883C5.355 7.305 5.78567 6.744 6.103 6.2C6.43167 5.64467 6.596 5.10633 6.596 4.585C6.596 4.09767 6.46 3.667 6.188 3.293C5.92733 2.919 5.491 2.732 4.879 2.732C4.25567 2.732 3.78533 2.936 3.468 3.344C3.15067 3.752 2.992 4.245 2.992 4.823H0.884C0.906667 3.95033 1.09933 3.225 1.462 2.647C1.82467 2.05767 2.30633 1.62133 2.907 1.338C3.50767 1.04333 4.182 0.896 4.93 0.896C6.14267 0.896 7.08333 1.23033 7.752 1.899C8.432 2.55633 8.772 3.412 8.772 4.466C8.772 5.12333 8.619 5.76367 8.313 6.387C8.01833 7.01033 7.62733 7.611 7.14 8.189C6.65267 8.767 6.12567 9.311 5.559 9.821C4.99233 10.3197 4.44267 10.7843 3.91 11.215H9.061V13H0.867Z" fill="black"/>
</svg>
