<svg width="8" height="8" viewBox="0 0 8 8" fill="none" xmlns="http://www.w3.org/2000/svg">
<path fill-rule="evenodd" clip-rule="evenodd" d="M7.33333 0C7.70152 0 8 0.298477 8 0.666667V7.33333C8 7.70152 7.70152 8 7.33333 8H0.666667C0.298477 8 0 7.70152 0 7.33333V0.666667C0 0.298477 0.298477 0 0.666667 0H7.33333ZM6.33333 6.66667C6.51743 6.66667 6.66667 6.51743 6.66667 6.33333V1.66667C6.66667 1.48257 6.51743 1.33333 6.33333 1.33333H1.66667C1.48257 1.33333 1.33333 1.48257 1.33333 1.66667V6.33333C1.33333 6.51743 1.48257 6.66667 1.66667 6.66667H6.33333Z" fill="black"/>
</svg>
