<svg width="14" height="8" viewBox="0 0 14 8" fill="none" xmlns="http://www.w3.org/2000/svg">
<path d="M0.636417 0.480957C0.467581 0.480802 0.305616 0.547803 0.186231 0.667188C0.0668464 0.786573 -0.000154698 0.948538 2.68218e-07 1.11737V4.45812C-2.50467e-07 4.76059 0.212885 5.02127 0.50925 5.08171C0.583199 5.09692 0.636306 5.16196 0.636417 5.23746V6.52604C0.636417 6.87752 0.92135 7.16246 1.27283 7.16246C1.62432 7.16246 1.90925 6.87752 1.90925 6.52604V5.25379C1.9091 5.21161 1.92574 5.1711 1.95552 5.14122C1.98529 5.11134 2.02573 5.09454 2.06792 5.09454H11.9321C11.9743 5.09454 12.0147 5.11134 12.0445 5.14122C12.0743 5.1711 12.0909 5.21161 12.0908 5.25379V6.52604C12.0908 6.87752 12.3757 7.16246 12.7272 7.16246C13.0787 7.16246 13.3636 6.87752 13.3636 6.52604V5.23746C13.3637 5.16196 13.4168 5.09692 13.4908 5.08171C13.7871 5.02127 14 4.76059 14 4.45812V1.11737C14.0002 0.948538 13.9332 0.786573 13.8138 0.667188C13.6944 0.547803 13.5324 0.480802 13.3636 0.480957H0.636417Z" fill="black"/>
</svg>
